# xmcd CD database file
#
# Track frame offsets:
#	150
#	18462
#	40694
#	61992
#	79882
#	98379
#	118449
#	139882
#	159362
#	178072
#	199072
#
# Disc length: 3007 seconds
#
# Revision: 7
# Processed by: cddbd v1.5.2PL0 Copyright (c) Steve Scherf et al.
# Submitted via: CDex 1.51
#
DISCID=8f0bbd0b
DTITLE=Robert Cray - Midnight Stroll
DYEAR=1990
DGENRE=Blues
TTITLE0=The Forecast (Calls For Pain)
TTITLE1=These Things
TTITLE2=My Problem
TTITLE3=Labor Of Love
TTITLE4=Bouncin' Back
TTITLE5=Consequences
TTITLE6=The Things You Do To Me
TTITLE7=Walk Around Time
TTITLE8=Move A Mountain
TTITLE9=Holdin' Court
TTITLE10=Midnight Stroll
EXTD=YEAR: 1990
EXTT0=
EXTT1=
EXTT2=
EXTT3=
EXTT4=
EXTT5=
EXTT6=
EXTT7=
EXTT8=
EXTT9=
EXTT10=
PLAYORDER=
